<?xml version="1.0" encoding="UTF-8"?><svg id="Layer_2" xmlns="http://www.w3.org/2000/svg" viewBox="0 0 275 259"><defs><style>.cls-1,.cls-2{fill:#fff;}.cls-2{fill-rule:evenodd;}</style></defs><g id="_4"><g><g><path class="cls-1" d="M53.82,147h-4.27c-2.34,0-3.94-.43-4.8-1.3-.96-.96-1.44-2.78-1.44-5.47v-29.09h3.94v29.09c0,1.41,.1,2.24,.29,2.5,.19,.26,.86,.38,2.02,.38h4.27v3.89Z"/><path class="cls-1" d="M67.98,141.54c0,1.85-.59,3.37-1.78,4.55-1.18,1.18-2.72,1.77-4.61,1.77s-3.43-.58-4.63-1.75c-1.2-1.17-1.8-2.69-1.8-4.58v-25.12c0-1.85,.6-3.36,1.8-4.53,1.2-1.17,2.74-1.75,4.63-1.75s3.34,.59,4.56,1.77c1.22,1.18,1.82,2.68,1.82,4.51v25.12Zm-3.84-1.06v-23.05c0-1.25-.21-2.11-.62-2.59-.42-.48-1.06-.72-1.92-.72s-1.5,.26-1.9,.79c-.4,.53-.6,1.37-.6,2.52v23.05c0,1.21,.22,2.07,.65,2.56,.43,.5,1.06,.74,1.9,.74,1.66,0,2.5-1.1,2.5-3.31Z"/><path class="cls-1" d="M85.4,147h-3.84v-15.78l-4.61-7.72v23.49h-3.94v-37.74l8.54,14.84v-12.96h3.84v35.86Z"/><path class="cls-1" d="M103.54,147h-5.86c-3.55,0-5.33-2-5.33-6v-1.44h-3.31l-2.3-3.7h5.62v-24.72h11.18v3.89h-7.34v20.83h7.34v3.7h-7.34v2.16c0,.93,.48,1.39,1.45,1.39h5.89v3.89Z"/><path class="cls-1" d="M117.95,147h-4.27c-2.34,0-3.94-.43-4.8-1.3-.96-.96-1.44-2.78-1.44-5.47v-29.09h3.94v29.09c0,1.41,.1,2.24,.29,2.5,.19,.26,.86,.38,2.02,.38h4.27v3.89Z"/><path class="cls-1" d="M131.14,132.7c0,3.52-1.46,5.73-4.37,6.62v7.68h-3.84v-7.68c-2.91-.9-4.37-3.1-4.37-6.62v-21.55h3.84v21.55c0,1.86,.82,2.78,2.47,2.78s2.42-.93,2.42-2.78v-21.55h3.84v21.55Z"/><path class="cls-1" d="M153.32,147h-3.94v-35.86h3.94v35.86Z"/><path class="cls-1" d="M166.09,111.14c-1.6,1.54-2.85,3.33-3.74,5.38-.9,2.05-1.34,4.11-1.34,6.19s.7,4.64,2.11,7.97,2.11,5.84,2.11,7.54c0,3.1-.77,6.03-2.3,8.78h-4.94c2.27-2.75,3.41-5.6,3.41-8.54,0-.64-.96-3.6-2.86-8.88-.91-2.5-1.36-4.78-1.36-6.86,0-2.21,.29-4.26,.86-6.17,.58-1.9,1.5-3.7,2.78-5.4h5.28Z"/><path class="cls-1" d="M180.39,147h-4.27c-2.34,0-3.94-.43-4.8-1.3-.96-.96-1.44-2.78-1.44-5.47v-29.09h3.94v29.09c0,1.41,.1,2.24,.29,2.5,.19,.26,.86,.38,2.02,.38h4.27v3.89Z"/><path class="cls-1" d="M196.18,147h-3.84v-7.44h-4.8v7.44h-3.84v-7.44h-3.31l-2.3-3.7h5.62v-18.48c0-2.24,.57-4.01,1.7-5.3,1.14-1.3,2.7-1.94,4.68-1.94s3.42,.65,4.49,1.94c1.07,1.3,1.61,3.06,1.61,5.3v29.62Zm-3.84-11.14v-18.48c0-1.22-.18-2.06-.54-2.54-.36-.48-1-.72-1.91-.72-.85,0-1.45,.24-1.81,.72-.36,.48-.54,1.33-.54,2.54v18.48h4.8Z"/><path class="cls-1" d="M213.94,147h-3.84v-15.78l-4.61-7.72v23.49h-3.94v-37.74l8.54,14.84v-12.96h3.84v35.86Z"/><path class="cls-1" d="M232.61,128.69c0,4.38-1.15,8.21-3.46,11.51-1.63,2.33-3.78,4.31-6.43,5.94-1.89,1.15-3.06,1.73-3.5,1.73v-38.3c.45,0,1.6,.56,3.46,1.68,2.66,1.6,4.8,3.56,6.43,5.9,2.33,3.32,3.5,7.18,3.5,11.55Zm-3.98,.26c0-3.33-.91-6.4-2.74-9.22-.61-.93-1.52-2-2.74-3.22v24.58c1.22-1.15,2.13-2.18,2.74-3.07,1.82-2.72,2.74-5.74,2.74-9.07Z"/></g><g><path class="cls-1" d="M42.83,172.96c0-1.9,1-2.99,2.84-2.99s2.84,1.09,2.84,2.99v6.19c0,1.9-1,2.99-2.84,2.99s-2.84-1.09-2.84-2.99v-6.19Zm1.87,6.31c0,.85,.37,1.17,.97,1.17s.97-.32,.97-1.17v-6.43c0-.85-.37-1.17-.97-1.17s-.97,.32-.97,1.17v6.43Z"/><path class="cls-1" d="M55.5,182c-.1-.31-.17-.49-.17-1.46v-1.87c0-1.1-.37-1.51-1.22-1.51h-.65v4.84h-1.87v-11.9h2.82c1.94,0,2.77,.9,2.77,2.74v.93c0,1.22-.39,2.02-1.22,2.41,.94,.39,1.24,1.29,1.24,2.53v1.84c0,.58,.02,1,.2,1.44h-1.9Zm-2.04-10.2v3.65h.73c.7,0,1.12-.31,1.12-1.26v-1.17c0-.85-.29-1.22-.95-1.22h-.9Z"/><path class="cls-1" d="M60.29,170.1h1.87v11.9h-1.87v-11.9Z"/><path class="cls-1" d="M68.2,175.37h2.62v3.77c0,1.9-.95,2.99-2.79,2.99s-2.79-1.09-2.79-2.99v-6.19c0-1.9,.95-2.99,2.79-2.99s2.79,1.09,2.79,2.99v1.16h-1.77v-1.27c0-.85-.37-1.17-.97-1.17s-.97,.32-.97,1.17v6.43c0,.85,.37,1.16,.97,1.16s.97-.31,.97-1.16v-2.19h-.85v-1.7Z"/><path class="cls-1" d="M73.89,170.1h1.87v11.9h-1.87v-11.9Z"/><path class="cls-1" d="M80.66,173.38v8.62h-1.68v-11.9h2.35l1.92,7.12v-7.12h1.67v11.9h-1.92l-2.33-8.62Z"/><path class="cls-1" d="M94.17,182h-1.89l-.32-2.16h-2.29l-.32,2.16h-1.72l1.9-11.9h2.74l1.9,11.9Zm-4.27-3.77h1.8l-.9-6.02-.9,6.02Z"/><path class="cls-1" d="M96.91,170.1h1.87v10.2h3.08v1.7h-4.95v-11.9Z"/><path class="cls-1" d="M109.05,170.1h1.87v11.9h-1.87v-11.9Z"/><path class="cls-1" d="M118.06,182c-.1-.31-.17-.49-.17-1.46v-1.87c0-1.1-.37-1.51-1.22-1.51h-.65v4.84h-1.87v-11.9h2.82c1.94,0,2.77,.9,2.77,2.74v.93c0,1.22-.39,2.02-1.22,2.41,.93,.39,1.24,1.29,1.24,2.53v1.84c0,.58,.02,1,.2,1.44h-1.9Zm-2.04-10.2v3.65h.73c.7,0,1.12-.31,1.12-1.26v-1.17c0-.85-.29-1.22-.95-1.22h-.9Z"/><path class="cls-1" d="M122.85,170.1h1.87v11.9h-1.87v-11.9Z"/><path class="cls-1" d="M130.47,169.97c1.82,0,2.75,1.09,2.75,2.99v.37h-1.77v-.49c0-.85-.34-1.17-.93-1.17s-.94,.32-.94,1.17c0,2.45,3.66,2.91,3.66,6.31,0,1.9-.95,2.99-2.79,2.99s-2.79-1.09-2.79-2.99v-.73h1.77v.85c0,.85,.37,1.16,.97,1.16s.97-.31,.97-1.16c0-2.45-3.66-2.91-3.66-6.31,0-1.9,.94-2.99,2.75-2.99Z"/><path class="cls-1" d="M138.05,182h-1.87v-11.9h1.87v5.1h2.12v-5.1h1.9v11.9h-1.9v-5.1h-2.12v5.1Z"/><path class="cls-1" d="M153.72,182c-.1-.31-.17-.49-.17-1.46v-1.87c0-1.1-.37-1.51-1.22-1.51h-.65v4.84h-1.87v-11.9h2.82c1.94,0,2.77,.9,2.77,2.74v.93c0,1.22-.39,2.02-1.22,2.41,.93,.39,1.24,1.29,1.24,2.53v1.84c0,.58,.02,1,.2,1.44h-1.9Zm-2.04-10.2v3.65h.73c.7,0,1.12-.31,1.12-1.26v-1.17c0-.85-.29-1.22-.95-1.22h-.9Z"/><path class="cls-1" d="M160.39,175.12h2.57v1.7h-2.57v3.48h3.23v1.7h-5.1v-11.9h5.1v1.7h-3.23v3.31Z"/><path class="cls-1" d="M169.16,169.97c1.82,0,2.75,1.09,2.75,2.99v.37h-1.77v-.49c0-.85-.34-1.17-.93-1.17s-.94,.32-.94,1.17c0,2.45,3.66,2.91,3.66,6.31,0,1.9-.95,2.99-2.79,2.99s-2.79-1.09-2.79-2.99v-.73h1.77v.85c0,.85,.37,1.16,.97,1.16s.97-.31,.97-1.16c0-2.45-3.65-2.91-3.65-6.31,0-1.9,.93-2.99,2.75-2.99Z"/><path class="cls-1" d="M174.33,170.1h5.78v1.7h-1.96v10.2h-1.87v-10.2h-1.95v-1.7Z"/><path class="cls-1" d="M188.2,182h-1.89l-.32-2.16h-2.29l-.32,2.16h-1.72l1.9-11.9h2.74l1.9,11.9Zm-4.27-3.77h1.8l-.9-6.02-.9,6.02Z"/><path class="cls-1" d="M192.72,170.1v9.18c0,.85,.37,1.16,.97,1.16s.97-.31,.97-1.16v-9.18h1.77v9.06c0,1.9-.95,2.99-2.79,2.99s-2.79-1.09-2.79-2.99v-9.06h1.87Z"/><path class="cls-1" d="M203.48,182c-.1-.31-.17-.49-.17-1.46v-1.87c0-1.1-.37-1.51-1.22-1.51h-.65v4.84h-1.87v-11.9h2.82c1.94,0,2.77,.9,2.77,2.74v.93c0,1.22-.39,2.02-1.22,2.41,.93,.39,1.24,1.29,1.24,2.53v1.84c0,.58,.02,1,.2,1.44h-1.9Zm-2.04-10.2v3.65h.73c.7,0,1.12-.31,1.12-1.26v-1.17c0-.85-.29-1.22-.95-1.22h-.9Z"/><path class="cls-1" d="M214.33,182h-1.89l-.32-2.16h-2.29l-.32,2.16h-1.72l1.9-11.9h2.74l1.9,11.9Zm-4.27-3.77h1.8l-.9-6.02-.9,6.02Z"/><path class="cls-1" d="M218.73,173.38v8.62h-1.68v-11.9h2.35l1.92,7.12v-7.12h1.67v11.9h-1.92l-2.33-8.62Z"/><path class="cls-1" d="M225.65,170.1h5.78v1.7h-1.95v10.2h-1.87v-10.2h-1.95v-1.7Z"/></g><g><path class="cls-1" d="M82.65,84.22c.17,.34,.3,.7,.38,1.08,.08,.38,.13,.8,.13,1.28,0,.35-.04,.69-.11,1.05-.08,.35-.19,.69-.33,1.02-.14,.33-.32,.64-.53,.92s-.45,.54-.71,.75c-.27,.21-.56,.38-.87,.5-.32,.12-.65,.18-1.01,.18-.52,0-.96-.11-1.32-.34s-.67-.52-.9-.88-.41-.77-.51-1.23c-.11-.46-.16-.92-.16-1.39,0-.77,.1-1.44,.29-2,.19-.56,.47-1.05,.83-1.46,.36-.41,.8-.74,1.32-.98,.52-.24,1.11-.36,1.76-.36,.56,0,1.08,.09,1.56,.26,.49,.17,.94,.4,1.37,.69,.42,.29,.82,.65,1.19,1.09,.37,.44,.71,.86,1.02,1.26l-.17,1.24c-.16-.21-.37-.44-.64-.69s-.56-.52-.86-.82c-.3-.3-.6-.55-.89-.76-.29-.21-.54-.38-.76-.52l-.07,.1Zm-2.72,5.09c.2,0,.39-.1,.58-.3,.19-.2,.35-.46,.49-.76,.14-.31,.25-.68,.34-1.12,.08-.44,.13-.82,.13-1.16,0-.27-.02-.52-.06-.75-.04-.23-.1-.43-.18-.6-.08-.17-.19-.3-.32-.4-.13-.1-.28-.15-.47-.15-.24,0-.47,.1-.69,.31-.22,.2-.41,.47-.57,.79-.16,.32-.29,.67-.39,1.06-.09,.39-.14,.82-.14,1.31,0,.25,.02,.48,.07,.69,.05,.22,.12,.41,.22,.57,.1,.16,.23,.29,.4,.39,.16,.1,.36,.15,.59,.15Z"/><path class="cls-1" d="M85.72,89.16c0-.39,.02-.83,.07-1.34,.05-.51,.11-1.06,.18-1.67,.07-.61,.15-1.15,.24-1.64,.09-.49,.17-.9,.25-1.25,.06-.27,.19-.5,.37-.68,.18-.18,.43-.27,.75-.27s.54,.1,.66,.29c.12,.19,.18,.45,.18,.77,0,.09,0,.21-.03,.36-.02,.15-.04,.31-.07,.49-.03,.18-.05,.36-.08,.55-.03,.19-.06,.41-.08,.65-.03,.24-.05,.42-.07,.55-.02,.12-.03,.2-.03,.24h.18c.04-.06,.09-.17,.17-.31,.08-.14,.16-.35,.26-.62s.21-.51,.32-.72c.11-.21,.22-.41,.32-.6,.1-.19,.19-.36,.27-.51s.14-.25,.18-.33c.19-.32,.4-.53,.64-.65,.24-.12,.51-.18,.8-.18s.53,.12,.7,.37c.17,.25,.26,.59,.26,1.02,0,.06-.01,.17-.04,.33-.03,.15-.06,.33-.1,.54-.04,.21-.09,.48-.14,.82-.05,.33-.1,.63-.14,.9-.04,.26-.07,.52-.1,.78s-.04,.5-.04,.71c0,.36,.05,.66,.14,.9s.23,.35,.43,.35c.07,0,.17-.03,.3-.08,.19-.07,.32-.13,.37-.18,.26-.2,.39-.3,.4-.29,.02,0,.21-.11,.59-.35,.47-.3,1.03-.67,1.68-1.1v1.97s-.45,.33-.45,.33c-.04,.03-.31,.18-.83,.46-.74,.4-1.21,.64-1.4,.72-.46,.21-.74,.32-.85,.35-.29,.09-.6,.14-.92,.14s-.59-.23-.81-.7c-.22-.47-.33-1.15-.33-2.04,0-.35,.02-.73,.07-1.14,.05-.41,.11-.85,.18-1.31h-.14l-2.3,4.57c-.12,.25-.25,.41-.4,.49-.15,.09-.32,.13-.51,.13-.24,0-.43-.05-.58-.15-.15-.1-.26-.24-.34-.41-.08-.17-.13-.37-.16-.59-.03-.22-.04-.45-.04-.68Z"/><path class="cls-1" d="M97.1,91c-.32,0-.61-.14-.88-.41-.27-.27-.51-.64-.71-1.1-.2-.46-.36-1-.47-1.6-.11-.61-.17-1.25-.17-1.92,0-.58,.08-1.34,.25-2.3,.17-.96,.25-1.44,.25-1.44,0,0,.13-.48,.38-1.44,.26-.96,.51-1.73,.77-2.31,.26-.58,.54-1.12,.84-1.62,.3-.5,.62-.94,.95-1.32,.33-.37,.68-.67,1.04-.88,.36-.21,.73-.32,1.1-.32,.27,0,.5,.05,.67,.16,.18,.1,.32,.24,.42,.41,.1,.17,.17,.36,.21,.58,.04,.21,.06,.43,.06,.66,0,.55-.07,1.12-.2,1.69-.13,.57-.31,1.15-.53,1.73-.22,.58-.48,1.16-.77,1.75-.29,.58-.6,1.16-.91,1.74-.32,.57-.63,1.14-.95,1.7-.32,.56-.62,1.1-.89,1.63-.03,.06-.06,.14-.09,.23-.03,.09-.06,.2-.09,.31s-.06,.23-.09,.35-.05,.25-.07,.36v.12c0,.15,.02,.3,.05,.45,.03,.14,.07,.27,.12,.39,.05,.12,.1,.21,.15,.27,.05,.07,.1,.1,.15,.1,.11,0,.25-.02,.39-.07,.15-.05,.3-.11,.47-.19,.16-.08,.33-.17,.51-.27,.17-.1,.34-.21,.5-.31,.38-.25,.77-.53,1.19-.86l.78,1.85c-.54,.36-1.07,.67-1.59,.95-.23,.12-.47,.23-.71,.35-.25,.11-.49,.22-.74,.31-.25,.09-.49,.16-.72,.21-.24,.05-.46,.08-.66,.08Zm0-6.97c.26-.47,.54-1,.84-1.6,.3-.59,.58-1.2,.84-1.83,.26-.63,.49-1.25,.69-1.87,.19-.62,.32-1.2,.37-1.74,0-.17,0-.32-.01-.44,0-.12-.04-.18-.08-.18-.16,0-.33,.11-.52,.33-.19,.22-.37,.52-.56,.9-.19,.38-.41,1-.67,1.85-.26,.86-.39,1.28-.39,1.28,0,0-.08,.4-.24,1.19-.16,.79-.25,1.49-.28,2.09Z"/><path class="cls-1" d="M104.21,91.15l.19-1.06c-.32,.28-.65,.5-.99,.67-.34,.17-.68,.26-1,.26-.28,0-.55-.06-.82-.17-.27-.11-.5-.28-.71-.49s-.37-.47-.49-.78c-.12-.31-.18-.65-.18-1.04,0-.51,.04-.98,.11-1.4,.07-.42,.16-.95,.26-1.57,.1-.62,.22-1.12,.37-1.48,.14-.36,.3-.73,.48-1.09,.13-.26,.33-.46,.58-.6,.25-.14,.5-.21,.74-.21,.21,0,.38,.05,.53,.15,.15,.1,.22,.26,.22,.48,0,.06,0,.13-.02,.21-.01,.08-.04,.16-.07,.25-.1,.27-.19,.59-.26,.96-.07,.37-.17,.87-.29,1.49-.12,.62-.21,1.11-.28,1.47-.07,.36-.1,.69-.1,.97,0,.15,.01,.29,.03,.43,.02,.14,.06,.26,.11,.37,.05,.11,.12,.2,.21,.27,.09,.07,.2,.1,.33,.1,.22,0,.41-.09,.59-.28,.18-.19,.33-.42,.46-.68,.13-.27,.23-.54,.31-.82s.13-.52,.15-.71l.71-3.29c.04-.19,.12-.37,.25-.53,.12-.15,.25-.28,.41-.39,.16-.11,.32-.19,.49-.24,.17-.05,.33-.08,.48-.08,.18,0,.33,.04,.46,.12,.12,.08,.18,.2,.18,.37,0,.05,0,.11-.03,.19-.03,.16-.06,.37-.11,.63-.05,.26-.1,.56-.16,.9-.06,.34-.14,.8-.25,1.41-.11,.61-.19,1.09-.26,1.46-.15,.87-.3,1.8-.45,2.8,.18-.1,.37-.22,.58-.37,.21-.15,.43-.34,.69-.59,.25-.25,.53-.55,.84-.93,.31-.37,.66-.84,1.05-1.39l.42,1.96c-.11,.18-.24,.36-.4,.55-.18,.2-.36,.39-.56,.58-.29,.27-.5,.45-.63,.54-.04,.03-.25,.2-.64,.5-.12,.1-.51,.37-1.16,.81-.16,.11-.27,.3-.33,.58-.06,.28-.13,.8-.21,1.55-.03,.22-.05,.38-.06,.5-.04,.28-.07,.55-.1,.8-.03,.25-.09,.54-.17,.87-.08,.33-.18,.62-.29,.9s-.26,.54-.44,.81c-.18,.27-.38,.5-.6,.69-.22,.19-.48,.34-.79,.46-.31,.12-.65,.18-1.02,.18-.3,0-.58-.03-.83-.1-.25-.07-.49-.17-.7-.31-.21-.14-.38-.33-.52-.58-.13-.24-.21-.53-.24-.86-.05-.62,.12-1.28,.51-1.97,.22-.39,.37-.65,.46-.8,.09-.15,.23-.36,.41-.65,.19-.28,.38-.52,.59-.75,.41-.46,.75-.83,1.02-1.11,.27-.28,.58-.58,.95-.9Zm.03,2.12c-.41,.29-.82,.76-1.21,1.41-.4,.64-.72,1.3-.95,1.97-.19,.56-.1,.84,.29,.84,.14,0,.27-.02,.38-.05,.11-.04,.21-.1,.31-.19,.09-.09,.18-.19,.25-.3s.15-.26,.22-.46c.08-.2,.15-.39,.21-.58,.06-.19,.14-.44,.23-.76,.05-.17,.09-.36,.12-.57,.03-.21,.06-.46,.09-.75,.04-.29,.06-.48,.07-.56Z"/><path class="cls-1" d="M115.37,91.33s0-.21,.02-.53c.01-.33,.05-.76,.1-1.31,.05-.54,.11-1.17,.17-1.88,.06-.71,.16-1.46,.27-2.26,.12-.79,.25-1.6,.41-2.43,.16-.83,.35-1.64,.57-2.43,.22-.79,.47-1.53,.75-2.23,.28-.7,.6-1.31,.95-1.83,.35-.52,.74-.94,1.17-1.24,.43-.3,.9-.46,1.42-.46,.2,0,.41,.03,.63,.1,.22,.07,.42,.18,.6,.33,.18,.15,.33,.36,.45,.61,.12,.25,.18,.57,.18,.94,0,.35-.06,.74-.17,1.19-.11,.45-.27,.93-.47,1.43-.2,.51-.44,1.04-.71,1.59s-.57,1.1-.9,1.64c-.33,.55-.67,1.08-1.03,1.61-.36,.53-.72,1.02-1.1,1.49l-.02,.14c.12-.05,.22-.08,.28-.1,.06-.02,.13-.02,.2-.02,.08,0,.15,0,.2,.02,.05,.01,.1,.03,.14,.04,.04,.02,.08,.03,.13,.04,.04,.01,.1,.02,.16,.02,.58,0,1.09-.07,1.54-.21,.45-.14,.82-.29,1.12-.46,.36-.19,.67-.42,.93-.68l-.19,2.14c-.39,.21-.79,.38-1.21,.5-.42,.12-.81,.21-1.17,.27-.42,.07-.83,.11-1.25,.12,.23,.39,.43,.79,.61,1.2,.16,.36,.3,.76,.43,1.2,.13,.44,.19,.89,.19,1.34,0,.05,0,.16-.02,.33-.02,.17-.04,.38-.08,.62-.04,.25-.09,.52-.16,.82-.07,.3-.16,.6-.26,.9-.11,.3-.24,.6-.39,.88-.15,.28-.33,.54-.54,.75-.21,.22-.44,.4-.71,.53-.27,.13-.57,.2-.91,.2s-.6-.07-.84-.22c-.24-.15-.44-.34-.61-.59-.17-.25-.31-.54-.42-.87s-.2-.68-.27-1.05c-.06-.37-.11-.74-.13-1.13-.03-.38-.04-.75-.04-1.11Zm2.32-4.62s-.05,.07-.08,.2c-.03,.13-.05,.3-.07,.5-.02,.2-.04,.49-.07,.86-.03,.37-.05,.68-.07,.92s-.03,.47-.05,.68c-.01,.21-.02,.38-.02,.51,0,.86,.02,1.55,.05,2.06,.03,.51,.07,.9,.12,1.16,.05,.26,.11,.43,.17,.51,.06,.08,.12,.12,.19,.12,.2,0,.36-.09,.48-.27,.12-.18,.21-.41,.27-.69,.06-.28,.1-.58,.12-.91s.03-.65,.03-.95c0-.21,0-.46-.02-.76-.01-.3-.03-.62-.05-.97-.02-.35-.07-.74-.15-1.17-.07-.44-.18-.77-.31-.99-.13-.22-.24-.41-.33-.57-.08-.16-.16-.24-.23-.24Zm2.22-9.19c-.35,.78-.63,1.52-.85,2.22-.2,.64-.36,1.21-.46,1.71-.1,.5-.17,.93-.22,1.31-.04,.38-.08,.73-.13,1.05,.38-.67,.76-1.33,1.16-1.97,.4-.64,.75-1.24,1.05-1.79s.56-1.1,.77-1.62c.21-.52,.32-.89,.32-1.11,0-.31-.04-.54-.13-.68-.09-.14-.23-.21-.43-.21-.32,0-.54,.07-.65,.21-.09,.12-.23,.41-.44,.89Z"/><path class="cls-1" d="M123.42,89.16c0-.26,.01-.56,.04-.9s.07-.7,.12-1.09c.05-.38,.11-.77,.18-1.16,.07-.4,.15-.82,.26-1.27,.11-.45,.2-.82,.27-1.12,.08-.3,.15-.54,.23-.74,.05-.13,.09-.23,.14-.31,.05-.08,.1-.14,.16-.18,.06-.04,.14-.07,.23-.09,.09-.01,.2-.02,.34-.02,.15,0,.27,0,.36,.02,.08,.02,.15,.05,.19,.11,.04,.06,.07,.14,.08,.24,0,.11,.01,.25,.01,.43,0,.22-.01,.52-.04,.92s-.04,.75-.03,1.05h.1c.12-.23,.26-.54,.44-.92,.18-.38,.36-.7,.55-.95,.19-.25,.41-.46,.66-.64,.25-.17,.53-.26,.85-.26,.11,0,.22,.02,.33,.06s.2,.09,.28,.16c.08,.07,.14,.16,.19,.26,.05,.1,.07,.22,.07,.35,0,.1-.01,.24-.04,.42s-.08,.41-.14,.7c-.06,.29-.11,.52-.14,.71-.03,.18-.04,.34-.04,.46,0,.21,.02,.39,.06,.53s.1,.25,.16,.34,.14,.14,.23,.18c.09,.04,.17,.05,.27,.05,.26,0,.54-.06,.82-.18,.28-.12,.54-.25,.77-.4,.28-.17,.54-.36,.81-.58l-.13,2.06c-.15,.1-.33,.21-.52,.33-.19,.12-.4,.24-.62,.35s-.45,.2-.69,.27c-.24,.07-.48,.11-.73,.11-.44,0-.79-.09-1.06-.27-.27-.18-.48-.41-.64-.7-.16-.29-.28-.62-.35-.98-.08-.36-.14-.73-.18-1.09h-.14l-1.57,4.39c-.08,.23-.16,.42-.23,.57-.07,.15-.15,.27-.22,.36-.08,.09-.16,.16-.25,.2-.09,.04-.18,.06-.29,.06-.24,0-.43-.05-.58-.15-.15-.1-.26-.24-.34-.41-.08-.17-.13-.37-.16-.59-.03-.22-.04-.45-.04-.68Z"/><path class="cls-1" d="M134.85,91c-.55,0-1.03-.1-1.44-.3-.41-.2-.75-.48-1.03-.82-.27-.34-.48-.74-.62-1.19-.14-.45-.21-.92-.21-1.42,0-.32,.06-.71,.18-1.16,.12-.45,.25-.85,.38-1.19,.13-.35,.3-.68,.49-.99,.2-.31,.43-.59,.7-.83,.26-.24,.56-.43,.89-.57,.33-.14,.69-.21,1.1-.21,.33,0,.63,.05,.91,.16,.28,.1,.53,.25,.73,.44,.21,.19,.37,.42,.49,.69,.12,.27,.18,.57,.18,.9,0,.36-.12,.75-.36,1.19-.24,.44-.51,.82-.83,1.13-.32,.32-.69,.6-1.13,.84-.44,.25-.91,.44-1.42,.58,.09,.15,.17,.28,.26,.39,.08,.1,.17,.18,.26,.24,.09,.06,.18,.1,.28,.12,.1,.02,.2,.03,.31,.03,.35,0,.72-.07,1.11-.21,.39-.14,.77-.31,1.14-.52,.37-.21,.72-.43,1.05-.67,.33-.24,.61-.47,.83-.69l1.13,1.15c-.52,.55-1.06,1.03-1.64,1.46-.25,.18-.52,.36-.81,.53-.29,.17-.59,.33-.91,.47-.32,.14-.65,.24-.99,.33-.34,.08-.69,.12-1.04,.12Zm-1.17-4.19c.21,0,.44-.05,.69-.16,.25-.11,.48-.24,.7-.41,.21-.17,.42-.39,.63-.67,.2-.28,.31-.51,.31-.7,0-.26-.05-.47-.15-.64-.1-.17-.22-.25-.36-.25-.25,0-.47,.05-.65,.14-.18,.09-.33,.21-.45,.36-.12,.15-.22,.31-.29,.5-.07,.19-.16,.42-.26,.69s-.15,.5-.16,.68-.02,.33-.02,.46Z"/><path class="cls-1" d="M139.17,87.68c.33-.28,.59-.52,.8-.71,.21-.19,.41-.41,.62-.66,.21-.25,.37-.46,.49-.62,.12-.16,.26-.35,.43-.57,.16-.22,.36-.49,.6-.8,.23-.32,.54-.71,.91-1.19,.08-.11,.16-.21,.25-.31,.09-.1,.2-.19,.31-.27,.11-.08,.24-.15,.38-.2,.14-.05,.29-.08,.46-.08,.28,0,.5,.03,.65,.09,.15,.06,.26,.14,.33,.23,.07,.09,.11,.18,.12,.28,.01,.1,.02,.18,.02,.25,0,.14-.06,.3-.17,.47-.11,.17-.23,.34-.37,.5-.13,.16-.26,.31-.38,.44-.12,.13-.19,.23-.21,.3,0,.18,.01,.35,.04,.5,.03,.15,.06,.3,.11,.44,.04,.15,.09,.3,.14,.46,.05,.16,.09,.35,.14,.56,.04,.21,.05,.51,.02,.88-.03,.37-.05,.75-.05,1.13,.21-.14,.44-.27,.68-.39,.24-.12,.5-.24,.76-.36,.26-.12,.54-.26,.81-.41,.28-.15,.56-.33,.84-.55v1.99c-.35,.27-.77,.53-1.25,.76-.48,.24-.98,.45-1.51,.63-.53,.18-1.06,.32-1.59,.43-.54,.1-1.04,.16-1.53,.16-.35,0-.67-.03-.97-.09-.3-.06-.56-.16-.79-.29-.23-.13-.41-.3-.55-.52-.14-.21-.23-.47-.25-.77-.08,.02-.16,.03-.24,.04s-.16,0-.23,0c-.09,0-.18,0-.26,0-.08,0-.15-.03-.21-.07s-.11-.1-.14-.19c-.04-.09-.05-.21-.05-.37,0-.14,.04-.27,.11-.4,.07-.12,.15-.23,.25-.32,.09-.09,.19-.18,.28-.25,.09-.07,.16-.13,.21-.17Zm1.1,1.14c.07,0,.15,.04,.23,.13,.08,.09,.18,.19,.29,.29,.11,.11,.24,.2,.39,.29,.15,.09,.31,.13,.5,.13,.23,0,.42-.04,.57-.12,.15-.08,.27-.18,.36-.31,.09-.13,.15-.28,.18-.44,.04-.17,.05-.34,.05-.53,0-.16,0-.32-.03-.49-.02-.17-.02-.37,0-.62,.03-.25,.02-.44-.02-.57s-.07-.25-.1-.34l-2.43,2.56Z"/><path class="cls-1" d="M150.93,85.63c.24-.33,.51-.67,.81-1.05,.3-.37,.7-.8,1.2-1.29,.5-.49,.91-.84,1.23-1.05,.32-.21,.62-.32,.9-.32,.07,0,.15,.01,.24,.04,.09,.03,.17,.08,.25,.15,.08,.07,.14,.17,.2,.3s.08,.29,.08,.5c0,.41-.06,.8-.17,1.19-.11,.39-.32,.85-.63,1.4-.31,.55-.52,1.02-.63,1.42s-.16,.82-.16,1.25c0,.24,.04,.43,.11,.57,.07,.14,.16,.21,.27,.21,.14,0,.29-.03,.45-.09,.16-.06,.32-.14,.47-.23,.16-.1,.31-.2,.47-.32,.15-.12,.3-.25,.43-.38,.32-.3,.64-.64,.95-1.03l.15,2.34c-.11,.08-.24,.17-.4,.29-.16,.12-.34,.24-.54,.37-.2,.13-.41,.26-.64,.39-.23,.13-.46,.25-.69,.35-.23,.1-.46,.19-.7,.25-.23,.07-.45,.1-.66,.1-.33,0-.62-.08-.86-.25-.24-.16-.44-.37-.6-.63-.16-.25-.27-.53-.35-.83s-.12-.59-.12-.85c0-.19,.03-.4,.08-.63,.05-.23,.12-.47,.19-.71,.08-.24,.16-.47,.26-.69,.09-.23,.18-.43,.27-.6,.08-.18,.15-.32,.21-.44,.06-.11,.1-.18,.12-.2l-.18-.03c-.1,.06-.27,.23-.5,.49-.24,.26-.51,.59-.8,.99-.3,.4-.61,.84-.93,1.34-.32,.5-.61,1.01-.87,1.53-.13,.26-.23,.49-.32,.68-.08,.19-.16,.35-.24,.47-.08,.12-.16,.21-.26,.27-.09,.06-.21,.09-.36,.09-.19,0-.35-.05-.46-.16s-.2-.24-.25-.42c-.06-.17-.1-.37-.11-.59-.02-.22-.03-.45-.03-.68,0-.4,0-.93,.01-1.58,0-.65,.04-1.37,.08-2.17s.13-1.61,.26-2.46c.12-.85,.25-1.7,.37-2.54,.12-.84,.31-1.64,.55-2.4,.24-.76,.54-1.43,.89-2.01,.35-.58,.76-1.04,1.23-1.38,.47-.34,1.01-.51,1.62-.51,.32,0,.58,.05,.78,.14,.2,.09,.36,.23,.48,.4,.12,.17,.2,.38,.25,.61s.07,.51,.07,.8c0,.44-.06,.92-.18,1.46-.12,.53-.29,1.09-.49,1.66-.2,.57-.43,1.16-.69,1.74-.26,.59-.52,1.16-.79,1.71-.27,.55-.54,1.08-.79,1.57-.26,.49-.49,.92-.69,1.3l.18,.12Zm.78-5.53c.35-.9,.6-1.65,.75-2.27,.16-.62,.23-1.07,.23-1.36,0-.45-.06-.67-.19-.67-.15,0-.38,.25-.68,.75-.3,.5-.65,1.22-1.05,2.17-.1,.32-.19,.66-.28,1-.08,.35-.15,.69-.2,1.04-.05,.34-.1,.68-.15,1.02-.05,.33-.09,.65-.14,.94-.13,.7-.23,1.38-.29,2.04,.16-.37,.33-.77,.52-1.2,.19-.43,.37-.86,.55-1.29,.18-.42,.35-.83,.52-1.2,.16-.38,.29-.7,.4-.96Z"/><path class="cls-1" d="M163.43,91.33s0-.21,.02-.53c.01-.33,.05-.76,.09-1.31,.05-.54,.11-1.17,.17-1.88,.06-.71,.15-1.46,.27-2.26,.12-.79,.25-1.6,.41-2.43,.16-.83,.35-1.64,.56-2.43,.22-.79,.47-1.53,.75-2.23,.28-.7,.6-1.31,.95-1.83,.35-.52,.74-.94,1.17-1.24,.43-.3,.9-.46,1.42-.46,.2,0,.41,.03,.63,.1,.22,.07,.42,.18,.6,.33,.18,.15,.33,.36,.45,.61,.12,.25,.18,.57,.18,.94,0,.35-.06,.74-.17,1.19-.11,.45-.27,.93-.47,1.43-.2,.51-.44,1.04-.71,1.59s-.57,1.1-.9,1.64c-.33,.55-.67,1.08-1.03,1.61-.36,.53-.73,1.02-1.1,1.49l-.02,.14c.12-.05,.22-.08,.28-.1,.06-.02,.13-.02,.19-.02,.08,0,.15,0,.2,.02,.05,.01,.1,.03,.14,.04,.04,.02,.08,.03,.13,.04,.04,.01,.1,.02,.16,.02,.58,0,1.09-.07,1.54-.21,.45-.14,.82-.29,1.12-.46,.36-.19,.67-.42,.93-.68l-.19,2.14c-.39,.21-.79,.38-1.21,.5-.42,.12-.81,.21-1.17,.27-.42,.07-.83,.11-1.25,.12,.23,.39,.43,.79,.61,1.2,.16,.36,.3,.76,.43,1.2,.13,.44,.19,.89,.19,1.34,0,.05,0,.16-.02,.33-.02,.17-.04,.38-.08,.62-.04,.25-.09,.52-.16,.82-.07,.3-.15,.6-.26,.9-.11,.3-.24,.6-.39,.88s-.33,.54-.54,.75-.44,.4-.71,.53c-.27,.13-.57,.2-.91,.2-.32,0-.6-.07-.84-.22-.24-.15-.44-.34-.61-.59-.17-.25-.31-.54-.42-.87-.11-.33-.2-.68-.27-1.05-.06-.37-.11-.74-.14-1.13-.03-.38-.04-.75-.04-1.11Zm2.33-4.62s-.05,.07-.08,.2c-.03,.13-.05,.3-.07,.5-.02,.2-.04,.49-.07,.86-.03,.37-.05,.68-.07,.92s-.04,.47-.05,.68c-.01,.21-.02,.38-.02,.51,0,.86,.02,1.55,.05,2.06s.07,.9,.12,1.16c.05,.26,.11,.43,.17,.51,.06,.08,.12,.12,.19,.12,.2,0,.36-.09,.48-.27s.21-.41,.27-.69c.06-.28,.1-.58,.12-.91s.03-.65,.03-.95c0-.21,0-.46-.02-.76-.01-.3-.03-.62-.05-.97-.02-.35-.07-.74-.15-1.17-.07-.44-.18-.77-.31-.99s-.24-.41-.33-.57c-.08-.16-.16-.24-.23-.24Zm2.22-9.19c-.34,.78-.63,1.52-.85,2.22-.2,.64-.36,1.21-.46,1.71-.1,.5-.17,.93-.22,1.31-.04,.38-.09,.73-.13,1.05,.38-.67,.76-1.33,1.16-1.97,.4-.64,.75-1.24,1.05-1.79,.3-.56,.56-1.1,.77-1.62,.21-.52,.32-.89,.32-1.11,0-.31-.04-.54-.13-.68-.09-.14-.23-.21-.44-.21-.32,0-.54,.07-.65,.21-.09,.12-.23,.41-.44,.89Z"/><path class="cls-1" d="M176.88,84.22c.17,.34,.3,.7,.38,1.08,.08,.38,.13,.8,.13,1.28,0,.35-.04,.69-.11,1.05s-.19,.69-.33,1.02c-.14,.33-.32,.64-.53,.92s-.45,.54-.71,.75c-.27,.21-.56,.38-.87,.5-.32,.12-.65,.18-1.01,.18-.52,0-.96-.11-1.32-.34-.37-.23-.67-.52-.9-.88-.23-.36-.41-.77-.51-1.23-.11-.46-.16-.92-.16-1.39,0-.77,.1-1.44,.29-2,.19-.56,.47-1.05,.83-1.46,.36-.41,.8-.74,1.32-.98,.52-.24,1.11-.36,1.76-.36,.56,0,1.08,.09,1.56,.26,.49,.17,.94,.4,1.37,.69,.42,.29,.82,.65,1.19,1.09,.37,.44,.71,.86,1.02,1.26l-.17,1.24c-.16-.21-.37-.44-.64-.69-.27-.25-.56-.52-.86-.82-.3-.3-.6-.55-.89-.76-.29-.21-.54-.38-.76-.52l-.07,.1Zm-2.72,5.09c.2,0,.39-.1,.58-.3,.19-.2,.35-.46,.49-.76,.14-.31,.25-.68,.34-1.12,.08-.44,.13-.82,.13-1.16,0-.27-.02-.52-.06-.75s-.1-.43-.18-.6c-.08-.17-.19-.3-.32-.4-.13-.1-.28-.15-.47-.15-.24,0-.47,.1-.69,.31-.22,.2-.41,.47-.57,.79-.16,.32-.29,.67-.39,1.06-.09,.39-.14,.82-.14,1.31,0,.25,.02,.48,.07,.69,.05,.22,.12,.41,.22,.57,.1,.16,.23,.29,.4,.39s.36,.15,.59,.15Z"/><path class="cls-1" d="M185.36,84.22c.17,.34,.3,.7,.38,1.08,.08,.38,.13,.8,.13,1.28,0,.35-.04,.69-.11,1.05-.08,.35-.19,.69-.33,1.02-.14,.33-.32,.64-.53,.92s-.45,.54-.71,.75c-.27,.21-.56,.38-.88,.5-.32,.12-.65,.18-1.01,.18-.52,0-.96-.11-1.32-.34s-.67-.52-.9-.88c-.23-.36-.41-.77-.51-1.23-.11-.46-.16-.92-.16-1.39,0-.77,.1-1.44,.29-2,.19-.56,.47-1.05,.83-1.46,.36-.41,.8-.74,1.32-.98,.52-.24,1.11-.36,1.76-.36,.56,0,1.08,.09,1.56,.26,.49,.17,.94,.4,1.37,.69,.42,.29,.82,.65,1.19,1.09,.37,.44,.71,.86,1.02,1.26l-.17,1.24c-.16-.21-.37-.44-.64-.69-.27-.25-.55-.52-.86-.82-.3-.3-.6-.55-.89-.76-.29-.21-.54-.38-.76-.52l-.07,.1Zm-2.72,5.09c.2,0,.39-.1,.58-.3,.19-.2,.35-.46,.49-.76s.25-.68,.34-1.12c.08-.44,.13-.82,.13-1.16,0-.27-.02-.52-.06-.75s-.1-.43-.18-.6c-.08-.17-.19-.3-.32-.4-.13-.1-.28-.15-.47-.15-.24,0-.47,.1-.69,.31-.22,.2-.41,.47-.57,.79-.16,.32-.29,.67-.39,1.06-.09,.39-.14,.82-.14,1.31,0,.25,.02,.48,.07,.69,.05,.22,.12,.41,.22,.57,.1,.16,.23,.29,.4,.39,.16,.1,.36,.15,.59,.15Z"/><path class="cls-1" d="M198.4,89.17c-.42,.34-.83,.65-1.23,.91-.17,.11-.35,.22-.54,.33-.19,.11-.37,.21-.55,.29-.18,.08-.36,.15-.53,.21-.17,.05-.33,.08-.47,.08-.08,0-.21-.02-.37-.06-.17-.04-.35-.11-.54-.23-.2-.12-.39-.28-.58-.5-.2-.22-.36-.51-.51-.87-.22,.22-.45,.44-.69,.64-.24,.2-.5,.38-.76,.53-.26,.15-.53,.27-.79,.36-.27,.09-.54,.14-.81,.14-.38,0-.71-.08-.99-.24-.28-.16-.51-.37-.7-.63-.18-.26-.32-.56-.41-.9-.09-.33-.14-.68-.14-1.04,0-.38,.05-.77,.14-1.15,.1-.39,.24-.77,.42-1.13,.19-.37,.39-.75,.62-1.15,.23-.4,.52-.76,.9-1.09,.37-.33,.75-.57,1.15-.74,.39-.17,.81-.27,1.26-.31,.02-.76,.1-1.43,.24-2.01,.14-.58,.3-1.2,.46-1.87,.17-.67,.38-1.28,.64-1.85s.55-1.05,.86-1.46c.31-.41,.64-.73,1-.96,.35-.23,.72-.35,1.1-.35,.28,0,.51,.07,.7,.22,.19,.14,.35,.33,.47,.57,.12,.24,.21,.51,.26,.83,.05,.31,.08,.64,.08,.97,0,.21,0,.42,0,.64-.02,.84-.15,1.62-.39,2.35-.24,.73-.48,1.44-.72,2.15-.24,.71-.52,1.41-.86,2.1-.51,1.06-.84,1.78-.98,2.16-.03,.08-.06,.18-.09,.3-.03,.12-.06,.25-.09,.39-.03,.14-.05,.28-.07,.43-.02,.15-.03,.29-.03,.42,0,.17,0,.33,.03,.49,.02,.15,.05,.29,.1,.41,.05,.12,.11,.22,.18,.29,.08,.07,.17,.11,.29,.11s.23-.02,.36-.07c.13-.04,.27-.1,.42-.18,.15-.08,.29-.16,.44-.26,.15-.1,.3-.2,.44-.3,.32-.24,.66-.5,1.01-.81l.26,1.83Zm-6.09-5.19c-.39,.19-.73,.44-1.03,.75-.3,.31-.55,.72-.76,1.23-.2,.51-.36,.95-.46,1.31-.11,.37-.16,.7-.16,.99,0,.09,.01,.18,.04,.28,.03,.09,.08,.17,.15,.25,.07,.07,.17,.13,.3,.18s.3,.07,.5,.07c.11,0,.21-.02,.31-.07,.1-.05,.2-.11,.29-.18,.09-.08,.18-.16,.27-.26,.09-.1,.16-.2,.23-.3,.16-.24,.31-.51,.45-.81-.02-.08-.03-.21-.04-.39s-.02-.45-.03-.82c0-.37-.01-.67-.02-.91,0-.24,0-.45-.01-.65,0-.19,0-.35-.01-.48,0-.12-.01-.18-.02-.18Zm4.15-6c.04-.41,.05-.74,.05-.98,0-.32-.03-.54-.08-.66-.06-.12-.14-.18-.25-.18-.19,0-.36,.12-.52,.36-.16,.24-.28,.54-.37,.92-.09,.37-.2,.78-.31,1.22-.11,.44-.19,.87-.24,1.29-.05,.42-.09,.8-.12,1.14-.03,.34-.05,.58-.07,.72-.03,.29-.05,.57-.06,.84-.02,.27-.03,.52-.03,.74,0,.22,0,.42,0,.58v.47c.33-.78,.63-1.56,.9-2.33,.11-.33,.23-.67,.34-1.03,.11-.36,.22-.71,.33-1.07,.11-.35,.2-.7,.28-1.05,.08-.35,.13-.67,.16-.98Z"/></g><g id="Rectangle_1_copy"><path class="cls-2" d="M0,62V197H275V62H0ZM271,193H4V66H271v127Z"/></g><g id="Ellipse_5_copy_2"><path class="cls-2" d="M17.5,76c-1.93,0-3.5,1.57-3.5,3.5s1.57,3.5,3.5,3.5,3.5-1.57,3.5-3.5-1.57-3.5-3.5-3.5Zm0,100c-1.93,0-3.5,1.57-3.5,3.5s1.57,3.5,3.5,3.5,3.5-1.57,3.5-3.5-1.57-3.5-3.5-3.5Zm240-93c1.93,0,3.5-1.57,3.5-3.5s-1.57-3.5-3.5-3.5-3.5,1.57-3.5,3.5,1.57,3.5,3.5,3.5Zm0,93c-1.93,0-3.5,1.57-3.5,3.5s1.57,3.5,3.5,3.5,3.5-1.57,3.5-3.5-1.57-3.5-3.5-3.5Z"/></g><g id="Shape_5_copy"><path class="cls-2" d="M42,160H233v-2H42v2Zm0-61v2H233v-2H42Z"/></g><g id="Shape_5_copy_2"><path class="cls-2" d="M137.5,4.61l99.88,57.39h8.03L137.5,0,29.59,62h8.03L137.5,4.61Zm100.47,192.39l-99.97,57.39-99.97-57.39h-8.04l108.01,62,108.01-62h-8.04Z"/></g><g id="Shape_5_copy_5"><path class="cls-2" d="M113.64,38.77l-2.14-3.77-2.14,3.77-4.36,.81,3.03,3.14-.55,4.27,4.02-1.83,4.02,1.83-.55-4.27,3.03-3.14-4.36-.81Zm26-3l-2.14-3.77-2.14,3.77-4.36,.81,3.03,3.14-.55,4.27,4.02-1.83,4.02,1.83-.55-4.27,3.03-3.14-4.36-.81Zm30.36,3.81l-4.36-.81-2.14-3.77-2.14,3.77-4.36,.81,3.03,3.14-.55,4.27,4.02-1.83,4.02,1.83-.55-4.27,3.03-3.14Z"/></g><g id="Shape_5_copy_6"><path class="cls-2" d="M113.64,215.77l-2.14-3.77-2.14,3.77-4.36,.81,3.03,3.14-.55,4.27,4.02-1.83,4.02,1.83-.55-4.27,3.03-3.14-4.36-.81Zm26,5l-2.14-3.77-2.14,3.77-4.36,.81,3.03,3.14-.55,4.27,4.02-1.83,4.02,1.83-.55-4.27,3.03-3.14-4.36-.81Zm30.36-4.19l-4.36-.81-2.14-3.77-2.14,3.77-4.36,.81,3.03,3.14-.55,4.27,4.02-1.83,4.02,1.83-.55-4.27,3.03-3.14Z"/></g></g></g></svg>